<?xml version="1.0" encoding="UTF-8" standalone="no"?>
<!-- Created with Inkscape (http://www.inkscape.org/) -->

<svg
   width="9.5226221mm"
   height="4.6630626mm"
   viewBox="0 0 9.5226222 4.6630625"
   version="1.1"
   id="svg5"
   inkscape:version="1.1.2 (b8e25be8, 2022-02-05)"
   sodipodi:docname="drawing.svg"
   xmlns:inkscape="http://www.inkscape.org/namespaces/inkscape"
   xmlns:sodipodi="http://sodipodi.sourceforge.net/DTD/sodipodi-0.dtd"
   xmlns="http://www.w3.org/2000/svg"
   xmlns:svg="http://www.w3.org/2000/svg">
  <sodipodi:namedview
     id="namedview7"
     pagecolor="#ffffff"
     bordercolor="#999999"
     borderopacity="1"
     inkscape:pageshadow="0"
     inkscape:pageopacity="0"
     inkscape:pagecheckerboard="0"
     inkscape:document-units="mm"
     showgrid="false"
     inkscape:zoom="2.8284272"
     inkscape:cx="-99.87883"
     inkscape:cy="28.461047"
     inkscape:window-width="1920"
     inkscape:window-height="1027"
     inkscape:window-x="1920"
     inkscape:window-y="25"
     inkscape:window-maximized="0"
     inkscape:current-layer="g2283" />
  <defs
     id="defs2">
    <rect
       x="-49.851028"
       y="-31.112698"
       width="381.83765"
       height="278.60007"
       id="rect19546" />
    <inkscape:path-effect
       effect="skeletal"
       id="path-effect2019"
       is_visible="true"
       lpeversion="1"
       pattern="M 0,4.9921382 C 0,2.2364779 2.2364779,0 4.9921382,0 c 2.7556604,0 4.9921383,2.2364779 4.9921383,4.9921382 0,2.7556604 -2.2364779,4.9921383 -4.9921383,4.9921383 C 2.2364779,9.9842765 0,7.7477986 0,4.9921382 Z"
       copytype="single_stretched"
       prop_scale="1"
       scale_y_rel="false"
       spacing="0"
       normal_offset="0"
       tang_offset="0"
       prop_units="false"
       vertical_pattern="false"
       hide_knot="false"
       fuse_tolerance="0" />
  </defs>
  <g
     inkscape:label="Layer 1"
     inkscape:groupmode="layer"
     id="layer1"
     transform="translate(-141.75722,-125.89746)">
    <a
       id="a6645" />
    <g
       id="g21114">
      <g
         id="g5704"
         transform="translate(49.008145,82.894435)">
        <g
           id="g3651">
          <path
             d="m 79.760513,81.063553 c 0,15.07257 12.262462,27.335017 27.335017,27.335017 h 8.24299 v 2.60803 c 0,0.55791 0.45143,1.00931 1.00929,1.00931 h 7.56981 c 0.55786,0 1.00929,-0.4514 1.00929,-1.00931 v -2.60803 h 8.24299 c 15.07255,0 27.33505,-12.262447 27.33505,-27.335017 0,-15.07256 -12.2625,-27.335 -27.33505,-27.335 h -26.07437 c -15.072555,0 -27.335017,12.26244 -27.335017,27.335 z M 117.35714,109.99732 V 95.025293 h 5.55119 v 14.972027 z m 7.56977,-13.364437 v -2.61689 c 0,-0.55784 -0.45143,-1.00931 -1.00929,-1.00931 h -7.56981 c -0.55786,0 -1.00929,0.45147 -1.00929,1.00931 v 2.61689 h -8.34156 c -8.585018,0 -15.569308,-6.98431 -15.569308,-15.56933 0,-8.585 6.98429,-15.56927 15.569308,-15.56927 h 26.27151 c 8.58501,0 15.56934,6.98427 15.56934,15.56927 0,8.58502 -6.98433,15.56933 -15.56934,15.56933 z m 8.24299,-40.88573 c 13.95976,0 25.31642,11.35665 25.31642,25.3164 0,13.95977 -11.35666,25.316407 -25.31642,25.316407 h -8.24299 v -7.728457 h 8.34156 c 9.6978,0 17.58793,-7.89013 17.58793,-17.58795 0,-9.6978 -7.89013,-17.58793 -17.58793,-17.58793 h -26.27151 c -9.697804,0 -17.587933,7.89013 -17.587933,17.58793 0,9.69782 7.890129,17.58795 17.587933,17.58795 h 8.34156 v 7.728457 h -8.24299 c -13.959734,0 -25.316393,-11.356637 -25.316393,-25.316407 0,-13.95975 11.356659,-25.3164 25.316393,-25.3164 z"
             id="path2024"
             style="fill:#000000;fill-opacity:1;stroke-width:1.00931" />
        </g>
        <path
           style="fill:#ffffff;fill-opacity:1;stroke:#666666;stroke-width:0.970775"
           d="m 158.29017,83.887551 c -0.41224,2.958572 -1.26583,5.718252 -2.57276,8.317792 -3.4687,6.89938 -9.79214,11.741657 -17.55179,13.440577 -1.47801,0.3236 -2.45165,0.38369 -7.44236,0.45932 l -5.74188,0.087 v -3.77037 -3.770367 l 5.47889,-0.0796 c 5.23741,-0.0761 5.55599,-0.10004 7.22803,-0.54429 6.84336,-1.81825 12.02303,-7.48684 13.08074,-14.315438 0.32454,-2.09533 0.11552,-5.720283 -0.43759,-7.588766 -1.69798,-5.735981 -5.65229,-9.928688 -11.23644,-11.913872 -2.60722,-0.926878 -2.5204,-0.922687 -19.11039,-0.922687 h -15.42857 l -1.55273,0.395621 c -5.075121,1.293088 -9.211723,4.515157 -11.592076,9.029266 -2.950189,5.594755 -2.62899,12.500746 0.82795,17.801356 2.401628,3.68248 6.130864,6.36356 10.475946,7.53154 1.57715,0.42394 1.95649,0.45194 7.14448,0.52727 l 5.4789,0.0796 v 3.769087 3.76909 l -5.65422,-0.0864 c -4.79381,-0.0733 -5.91254,-0.14087 -7.3518,-0.44429 -5.147153,-1.08513 -9.148114,-3.24715 -12.865681,-6.952277 -4.988997,-4.9723 -7.481187,-10.90186 -7.481187,-17.799682 0,-6.908586 2.495384,-12.850133 7.475493,-17.799267 3.529867,-3.507912 7.016252,-5.498624 11.658815,-6.657134 3.10195,-0.774065 4.26441,-0.816885 20.26728,-0.746561 14.77041,0.06491 15.1126,0.07411 16.7784,0.451321 10.20788,2.311506 17.67322,9.787234 19.78014,19.80766 0.41039,1.951758 0.59256,6.143517 0.34441,7.924501 z"
           id="path2730" />
      </g>
      <path
         style="fill:#ffffff;fill-opacity:1;stroke:#000000;stroke-width:0.319725;stroke-miterlimit:4;stroke-dasharray:none;stroke-opacity:1"
         d="m 166.4814,185.44045 v -7.45129 h 2.71754 2.71753 v 7.45129 7.4513 h -2.71753 -2.71754 z"
         id="path6032" />
    </g>
    <g
       id="g2283"
       transform="translate(74.347915,-3.0427083)">
      <path
         d="m 70.082925,129.30681 c 0,0 -2.67362,-0.44741 -2.67362,1.96479 0,2.34024 2.67362,1.96506 2.67362,1.96506 0,0 0.0839,0.45747 0.40798,0.35031 0,0 0.09,-0.0926 -0.11562,-0.47784 l 3.34486,0.0262 c 0,0 0.21723,0.11006 1.025,0.11006 2.91571,0 2.91571,-3.94705 0,-3.94705 -0.80777,0 -1.025,0.1098 -1.025,0.1098 l -3.34486,0.0262 c 0.20558,-0.38497 0.11562,-0.47784 0.11562,-0.47784 -0.32411,-0.10742 -0.40798,0.35031 -0.40798,0.35031 z m 6.06478,1.9513 c 0,0.74401 -0.78846,1.32292 -0.78846,1.32292 l -0.94298,-8e-4 c 0,0 0.96811,-0.51752 0.96811,-1.34276 0,-0.82523 -0.99536,-1.28825 -0.99536,-1.28825 l 0.97023,-0.019 c 0,0 0.78846,0.58393 0.78846,1.32794 z m -5.56657,-1.29011 c 0,0 -0.28178,0.31591 -0.28178,1.26259 0,0.94721 0.31802,1.3089 0.31802,1.3089 l -0.86333,0.36962 c 0,0 -0.65432,-0.48657 -0.65432,-1.65365 0,-1.16654 0.66781,-1.65338 0.66781,-1.65338 z"
         id="path824"
         style="fill:#000000;fill-opacity:1;stroke-width:0.264583" />
      <path
         style="fill:#ffffff;fill-opacity:1;stroke:#000000;stroke-width:0.227953"
         d="m 136.55116,-12.272173 c -0.92948,-0.940345 -1.68324,-2.482244 -1.95986,-4.009077 -0.15773,-0.870568 -0.18825,-2.416184 -0.0651,-3.295298 0.24549,-1.752178 0.94138,-3.292296 1.98372,-4.390277 l 0.39631,-0.417468 1.50292,0.677177 1.50292,0.677176 -0.23536,0.468095 c -0.49005,0.974647 -0.75031,2.431171 -0.75369,4.218095 -0.004,1.867928 0.24907,3.261208 0.7946,4.382598 0.15653,0.321781 0.28597,0.603737 0.28764,0.62657 0.002,0.02283 -0.70331,0.343569 -1.56661,0.712749 l -1.56964,0.671236 z"
         id="path2106"
         transform="matrix(0.26458333,0,0,0.26458333,33.540527,136.06172)" />
      <path
         style="fill:#ffffff;fill-opacity:1;stroke:#000000;stroke-width:0.227953"
         d="m 154.72187,-13.240309 c 0.0327,-0.02905 0.27384,-0.198888 0.53597,-0.377429 1.32311,-0.901192 2.3733,-2.215841 2.75181,-3.444762 0.21616,-0.701808 0.20174,-1.717368 -0.0342,-2.40625 -0.42052,-1.227965 -1.62883,-2.567266 -3.03798,-3.367331 l -0.34375,-0.195168 0.46875,-0.03871 c 0.25781,-0.02129 1.05174,-0.04238 1.76428,-0.04687 l 1.29554,-0.0082 0.70446,0.703125 c 1.76573,1.762369 2.45554,3.521831 2.04771,5.222992 -0.291,1.213832 -1.24554,2.661155 -2.40256,3.64287 l -0.43432,0.368512 h -1.68756 c -0.92815,0 -1.66084,-0.02376 -1.62818,-0.05281 z"
         id="path2145"
         transform="matrix(0.26458333,0,0,0.26458333,33.540527,136.06172)" />
    </g>
    <g
       id="g21107">
      <path
         id="path5295"
         style="fill:none;stroke:#f1b300;stroke-width:0.865;stroke-linecap:butt;stroke-linejoin:miter;stroke-miterlimit:4;stroke-dasharray:20.76, 0.865;stroke-dashoffset:0;stroke-opacity:1"
         d="m 89.5561,184.7775 -11.334183,0.0656 m 11.295452,-42.67913 c 12.981571,0.44637 19.055311,12.0658 19.006771,20.69235 0.0445,13.7667 -7.86977,20.46097 -18.990472,21.92516 m -30.954613,-0.0497 C 47.3255,183.26395 39.316699,176.55307 39.361727,162.75221 c -0.04912,-8.64798 6.097185,-20.29624 19.233821,-20.74373 l 30.920592,0.14563 m -31.025645,42.5709 11.273334,0.16377" />
    </g>
    <rect
       style="fill:#f4c337;fill-opacity:1;stroke:none;stroke-width:0.264999;stroke-miterlimit:4;stroke-dasharray:6.36, 0.264999;stroke-dashoffset:0;stroke-opacity:1"
       id="rect5007"
       width="9.2608871"
       height="4.8642988"
       x="104.59331"
       y="115.3357"
       ry="1.9644309" />
    <text
       xml:space="preserve"
       style="font-style:normal;font-weight:normal;font-size:6.24933px;line-height:1.25;font-family:sans-serif;fill:#000000;fill-opacity:1;stroke:none;stroke-width:0.156479;stroke-miterlimit:4;stroke-dasharray:none"
       x="114.63307"
       y="120.06048"
       id="text8808"><tspan
         id="tspan8806"
         style="fill:#ffffff;stroke-width:0.156479;stroke-miterlimit:4;stroke-dasharray:none"
         x="114.63307"
         y="120.06048"
         sodipodi:role="line">Demo</tspan></text>
    <text
       xml:space="preserve"
       transform="matrix(0.26458333,0,0,0.26458333,33.540527,129.88779)"
       id="text19544"
       style="font-style:normal;font-weight:normal;font-size:40px;line-height:1.25;font-family:sans-serif;white-space:pre;shape-inside:url(#rect19546);fill:#000000;fill-opacity:1;stroke:none" />
    <g
       id="g22058">
      <g
         id="g21832">
        <g
           id="g21264"
           transform="matrix(0.26458333,0,0,0.26458333,68.840641,116.64697)">
          <path
             d="m 34.00072,56.48651 a 8.015,8.015 0 0 1 -2.28406,-15.69336 8.07016,8.07016 0 0 1 4.573,0.0015 8.01255,8.01255 0 0 1 -2.28894,15.6919 z m 0,-14.02539 a 6.015,6.015 0 0 0 -1.71472,11.77636 6.049,6.049 0 0 0 3.42561,0.001 6.01246,6.01246 0 0 0 -1.71085,-11.77734 z"
             id="path21231" />
          <path
             d="m 60.99933,56.48651 a 8.01271,8.01271 0 1 1 7.99959,-8.0127 8.01512,8.01512 0 0 1 -7.99959,8.0127 z m 0,-14.02539 a 6.01271,6.01271 0 1 0 5.99967,6.01269 6.01287,6.01287 0 0 0 -5.99967,-6.01269 z"
             id="path21233" />
          <path
             d="m 22.00134,38.04559 a 7.93338,7.93338 0 0 1 -2.28895,-0.333 l -0.7109,-0.21435 v -4.0215 A 0.4396,0.4396 0 0 0 18.564,33.03631 h -4.01541 l -0.21385,-0.71094 a 8.05782,8.05782 0 0 1 0,-4.585 l 0.21385,-0.71142 H 18.564 a 0.43918,0.43918 0 0 0 0.43749,-0.43994 v -4.02047 l 0.7109,-0.21485 a 8.06147,8.06147 0 0 1 4.57789,0 l 0.7109,0.21485 v 4.02051 a 0.43917,0.43917 0 0 0 0.43747,0.43994 h 4.01543 l 0.21385,0.71142 a 8.05759,8.05759 0 0 1 0,4.585 l -0.21385,0.71094 h -4.01543 a 0.43959,0.43959 0 0 0 -0.43747,0.44043 v 4.02149 l -0.7109,0.21435 a 7.93336,7.93336 0 0 1 -2.28894,0.33297 z m -0.99995,-2.082 a 6.13592,6.13592 0 0 0 1.9999,0 v -2.48685 a 2.44182,2.44182 0 0 1 2.43736,-2.44043 H 27.919 a 6.181,6.181 0 0 0 0,-2.00732 h -2.48035 a 2.44172,2.44172 0 0 1 -2.43736,-2.43994 v -2.48682 a 6.13537,6.13537 0 0 0 -1.9999,0 v 2.48682 A 2.44173,2.44173 0 0 1 18.564,29.029 h -2.48033 a 6.18179,6.18179 0 0 0 0,2.00732 H 18.564 a 2.44183,2.44183 0 0 1 2.43739,2.44043 z"
             id="path21235" />
          <path
             d="M 48,40.049 A 6.009,6.009 0 1 1 53.99969,34.04021 6.01079,6.01079 0 0 1 48,40.049 Z M 48,30.03093 A 4.009,4.009 0 1 0 51.99979,34.04021 4.00865,4.00865 0 0 0 48,30.03094 Z"
             id="path21237" />
          <path
             d="m 71.99877,26.7658 a 4.67334,4.67334 0 1 1 4.66675,-4.67334 4.67559,4.67559 0 0 1 -4.66675,4.67334 z m 0,-7.34668 a 2.67335,2.67335 0 1 0 2.66685,2.67334 2.673,2.673 0 0 0 -2.66685,-2.67334 z"
             id="path21239" />
          <path
             d="m 71.99877,41.45916 a 4.67334,4.67334 0 1 1 4.66675,-4.67334 4.67559,4.67559 0 0 1 -4.66675,4.67334 z m 0,-7.34668 a 2.67335,2.67335 0 1 0 2.66685,2.67334 2.673,2.673 0 0 0 -2.66685,-2.67334 z"
             id="path21241" />
          <path
             d="m 79.3314,34.11248 a 4.67334,4.67334 0 1 1 4.66675,-4.67334 4.67475,4.67475 0 0 1 -4.66675,4.67334 z m 0,-7.34668 a 2.67335,2.67335 0 1 0 2.66685,2.67334 2.67283,2.67283 0 0 0 -2.66685,-2.67334 z"
             id="path21243" />
          <path
             d="m 64.66614,34.11248 a 4.67335,4.67335 0 1 1 4.66577,-4.67334 4.67559,4.67559 0 0 1 -4.66577,4.67334 z m 0,-7.34668 A 2.67335,2.67335 0 1 0 67.332,29.43914 2.673,2.673 0 0 0 64.66614,26.7658 Z"
             id="path21245" />
          <path
             d="M 87.11029,26.50457 A 21.66012,21.66012 0 0 0 66.99805,11.02357 V 11.00019 H 29.002 v 0.02338 A 21.643,21.643 0 0 0 8.88873,26.52508 C 4.99928,35.904 -1.27383,54.65008 0.22707,75.18719 l 0.02246,0.15039 a 13.57541,13.57541 0 0 0 11.53554,9.603 6.17309,6.17309 0 0 0 0.85151,0.05908 6.42756,6.42756 0 0 0 4.64142,-2.01315 c 2.86313,-3.00977 8.16657,-9.81934 11.89489,-21.89942 h 37.65427 c 3.72832,12.08008 9.03176,18.88965 11.89489,21.89891 a 6.38663,6.38663 0 0 0 5.49581,1.9541 13.57352,13.57352 0 0 0 11.53261,-9.60254 l 0.02246,-0.15039 C 97.2709,54.68328 90.99877,35.905 87.11029,26.50457 Z M 64.55677,13.00018 C 62.93478,14.91375 56.92728,17.01092 48,17.01092 c -8.92728,0 -14.93478,-2.09717 -16.55677,-4.01074 z m 29.228,61.9541 A 11.51962,11.51962 0 0 1 83.93762,82.96014 4.39246,4.39246 0 0 1 80.1712,81.6076 C 77.37544,78.66912 72.14427,71.9284 68.52629,59.80096 L 68.31341,59.08709 H 27.68659 l -0.21288,0.71387 C 23.85571,71.9284 18.62456,78.66912 15.8288,81.60809 a 4.38918,4.38918 0 0 1 -3.76348,1.35254 C 4.25323,81.84344 2.41055,75.7033 2.21524,74.95623 0.76512,54.82733 6.94254,36.42547 10.75777,27.2409 l 0.03711,-0.10644 A 19.632,19.632 0 0 1 29.179,13.01617 c 1.33826,3.90112 10.3229,5.99475 18.821,5.99475 8.4981,0 17.48274,-2.09363 18.82105,-5.99475 a 19.652,19.652 0 0 1 18.385,14.10022 l 0.03614,0.10352 C 89.05551,36.42645 95.231,54.86 93.78476,74.95428 Z"
             id="path21247" />
        </g>
        <path
           style="fill:#ffffff;fill-opacity:1;stroke:none;stroke-width:1.63465;stroke-miterlimit:4;stroke-dasharray:39.2315, 1.63465;stroke-dashoffset:0;stroke-opacity:1"
           d="m -218.49999,5.8327798 c -1.45129,-0.7347049 -2.84555,-2.0165249 -3.92768,-3.6109149 l -1.67768,-2.47186489 0.24424,-9.24999971 c 0.25995,-9.8450393 1.2201,-16.4138993 3.62246,-24.7829333 1.83861,-6.405127 5.68264,-16.645986 7.07904,-18.859214 2.77179,-4.393189 8.17638,-8.036617 12.87711,-8.680923 2.02333,-0.277328 2.42918,-0.151741 4.01812,1.243368 1.03771,0.911119 3.26353,2.022099 5.39092,2.690779 3.1936,1.003808 4.66152,1.138924 12.37346,1.138924 7.71195,0 9.17987,-0.135116 12.37346,-1.138924 2.12739,-0.66868 4.35322,-1.77966 5.39093,-2.690779 1.58894,-1.395109 1.99479,-1.520696 4.01812,-1.243368 5.27659,0.723237 11.31937,5.282458 13.82264,10.429059 1.84258,3.788242 6.08542,16.362374 7.30325,21.644012 1.75997,7.632846 2.5916,14.815341 2.5916,22.3826592 v 7.2543248 l -1.625,2.4030049 c -1.95416,2.889765 -5.10911,4.7100099 -8.16365,4.7100099 -1.95298,0 -2.33645,-0.230105 -4.58181,-2.7493349 -3.92685,-4.4058399 -7.36699,-11.0697497 -10.38955,-20.1256649 -0.16236,-0.486466 -4.75947,-0.625 -20.73999,-0.625 -15.98051,0 -20.57762,0.138534 -20.73998,0.625 -3.02256,9.0559152 -6.4627,15.719825 -10.38956,20.1256649 -2.23744,2.5103599 -2.63167,2.7481099 -4.53545,2.7352499 -1.15223,-0.00779 -3.09159,-0.523665 -4.335,-1.153135 z m 30.37956,-25.8300778 c 2.45321,-1.495738 3.61637,-3.763117 3.61857,-7.05376 0.003,-4.848506 -3.18619,-8.064326 -7.99813,-8.064326 -4.81195,0 -8.00137,3.21582 -7.99814,8.064326 0.002,3.290643 1.16536,5.558022 3.61857,7.05376 2.21376,1.34975 6.54537,1.34975 8.75913,0 z m 27,0 c 2.43985,-1.487591 3.61669,-3.766224 3.61669,-7.002701 0,-4.350783 -2.1543,-7.070981 -6.35997,-8.030634 -5.13324,-1.171304 -9.75167,2.663654 -9.75167,8.097392 0,2.866185 1.24463,5.225085 3.59136,6.806543 2.2167,1.493833 6.56216,1.556987 8.90359,0.1294 z m 9.78441,-15.024367 c 1.5306,-1.203966 2.12099,-3.663714 1.35987,-5.665609 -0.48698,-1.280865 -0.45201,-1.384831 0.34183,-1.016043 0.48638,0.225954 1.75788,0.408383 2.82556,0.405397 2.65898,-0.0074 4.30876,-1.897199 4.30876,-4.935514 0,-1.817888 -0.25416,-2.391533 -1.53836,-3.472118 -1.64651,-1.385448 -3.82043,-1.672794 -5.57032,-0.73628 -0.92213,0.493507 -0.99318,0.450065 -0.61338,-0.375 0.89719,-1.948981 0.4839,-4.648604 -0.92777,-6.060272 -2.04242,-2.042416 -4.95556,-1.906339 -6.9489,0.324594 -1.51088,1.690964 -1.70147,3.307759 -0.67039,5.686835 0.33912,0.782464 0.22897,0.825658 -0.95636,0.375 -2.19505,-0.834558 -3.66852,-0.589938 -5.31663,0.882649 -1.21788,1.088179 -1.55789,1.799983 -1.55789,3.261454 0,4.145981 3.30944,6.252049 7.23433,4.603799 0.79064,-0.332029 0.82685,-0.220216 0.34182,1.055499 -0.76111,2.001895 -0.17072,4.461643 1.35987,5.665609 1.70249,1.339174 4.62548,1.339174 6.32796,0 z m -24.81094,-0.715385 c 0.60668,-0.174018 1.67542,-0.996635 2.375,-1.828036 0.99319,-1.180335 1.27196,-2.06211 1.27196,-4.023275 0,-2.189706 -0.2179,-2.729537 -1.7,-4.211638 -1.4821,-1.4821 -2.02193,-1.7 -4.21163,-1.7 -1.97111,0 -2.84195,0.277937 -4.04645,1.291457 -3.67998,3.096498 -2.40127,9.353157 2.18053,10.669225 1.5156,0.435336 2.00528,0.411895 4.13059,-0.197733 z m -26.31214,-1.762949 c 0.80163,0 0.95911,-0.364922 0.95911,-2.222604 v -2.222605 l 2.375,-0.152395 2.375,-0.152396 0.14812,-3.09666 0.14812,-3.09666 -2.39812,-0.15334 -2.39812,-0.15334 -0.1524,-2.375 -0.1524,-2.375 h -2.9452 -2.94521 l -0.1524,2.375 -0.15239,2.375 -2.39813,0.15334 -2.39812,0.15334 0.14812,3.09666 0.14813,3.09666 2.375,0.152396 2.375,0.152395 v 2.189394 c 0,2.005224 0.11566,2.206697 1.375,2.395111 0.75625,0.113146 1.67465,0.128091 2.04089,0.03321 0.36624,-0.09488 1.09749,-0.172506 1.625,-0.172506 z"
           id="path21303"
           transform="matrix(0.26458333,0,0,0.26458333,128.76866,136.62299)" />
        <path
           style="fill:#ffffff;fill-opacity:1;stroke:none;stroke-width:1.63465;stroke-miterlimit:4;stroke-dasharray:39.2315, 1.63465;stroke-dashoffset:0;stroke-opacity:1"
           d="m -196.29999,-23.199999 c -1.90602,-1.906014 -2.25601,-4.274467 -0.99266,-6.717511 1.63656,-3.164754 6.10103,-3.697188 8.75419,-1.044028 2.49158,2.491578 2.0053,6.879451 -0.95629,8.628903 -2.37824,1.404866 -4.84777,1.090112 -6.80524,-0.867364 z"
           id="path21342"
           transform="matrix(0.26458333,0,0,0.26458333,128.76866,136.62299)" />
        <path
           style="fill:#ffffff;fill-opacity:1;stroke:none;stroke-width:1.63465;stroke-miterlimit:4;stroke-dasharray:39.2315, 1.63465;stroke-dashoffset:0;stroke-opacity:1"
           d="m -179.99014,-38.145796 c -1.78007,-0.895542 -2.53249,-2.640044 -1.90949,-4.427182 1.35995,-3.901149 6.89963,-2.901155 6.89963,1.245485 0,2.671234 -2.64837,4.359827 -4.99014,3.181697 z"
           id="path21381"
           transform="matrix(0.26458333,0,0,0.26458333,128.76866,136.62299)" />
        <path
           style="fill:#ffffff;fill-opacity:1;stroke:none;stroke-width:1.63465;stroke-miterlimit:4;stroke-dasharray:39.2315, 1.63465;stroke-dashoffset:0;stroke-opacity:1"
           d="m -168.56439,-22.254232 c -1.57695,-0.85686 -2.94152,-3.989401 -2.5744,-5.909864 0.32937,-1.723011 2.84945,-4.309197 4.30226,-4.415125 4.37378,-0.318902 6.83653,1.790054 6.83653,5.854392 0,2.644924 -2.64748,5.232655 -5.325,5.204811 -1.05875,-0.01101 -2.51647,-0.341407 -3.23939,-0.734214 z"
           id="path21420"
           transform="matrix(0.26458333,0,0,0.26458333,128.76866,136.62299)" />
        <path
           style="fill:#ffffff;fill-opacity:1;stroke:none;stroke-width:1.63465;stroke-miterlimit:4;stroke-dasharray:39.2315, 1.63465;stroke-dashoffset:0;stroke-opacity:1"
           d="m -156.5101,-37.518885 c -1.09793,-2.051501 0.67251,-3.973037 2.98453,-3.239232 2.35232,0.746598 1.54875,4.258118 -0.97443,4.258118 -0.96213,0 -1.65194,-0.349649 -2.0101,-1.018886 z"
           id="path21459"
           transform="matrix(0.26458333,0,0,0.26458333,128.76866,136.62299)" />
        <path
           style="fill:#ffffff;fill-opacity:1;stroke:none;stroke-width:0.408661;stroke-miterlimit:4;stroke-dasharray:9.80787, 0.408661;stroke-dashoffset:0;stroke-opacity:1"
           d="m -148.375,-43.781106 c -0.83377,-0.445551 -1.28997,-1.165769 -1.34773,-2.127715 -0.0385,-0.640704 0.007,-0.878347 0.25384,-1.341178 0.98127,-1.836296 3.66028,-1.830038 4.59937,0.01074 0.34537,0.676978 0.32733,1.773292 -0.0398,2.421557 -0.67541,1.192455 -2.27732,1.671597 -3.46564,1.036592 z"
           id="path21537"
           transform="matrix(0.26458333,0,0,0.26458333,128.76866,136.62299)" />
        <path
           style="fill:#ffffff;fill-opacity:1;stroke:none;stroke-width:0.408661;stroke-miterlimit:4;stroke-dasharray:9.80787, 0.408661;stroke-dashoffset:0;stroke-opacity:1"
           d="m -155.09623,-50.872514 c -1.00792,-0.239014 -2.02984,-1.465111 -2.02807,-2.433278 0.004,-1.922525 1.97995,-3.236857 3.69565,-2.457605 0.83055,0.37723 1.55553,1.46982 1.55296,2.340401 -0.003,1.025684 -0.89345,2.182634 -1.91277,2.485339 -0.69079,0.205143 -0.71277,0.206238 -1.30777,0.06514 z"
           id="path21576"
           transform="matrix(0.26458333,0,0,0.26458333,128.76866,136.62299)" />
        <path
           style="fill:#ffffff;fill-opacity:1;stroke:none;stroke-width:0.408661;stroke-miterlimit:4;stroke-dasharray:9.80787, 0.408661;stroke-dashoffset:0;stroke-opacity:1"
           d="m -162.8741,-43.692349 c -2.12815,-0.955896 -1.99969,-4.086107 0.19744,-4.811225 0.7063,-0.233103 1.70299,-0.0988 2.29102,0.308702 0.61369,0.425287 1.13564,1.405345 1.13564,2.132373 0,0.740025 -0.54241,1.7543 -1.15493,2.159647 -0.62298,0.41227 -1.79712,0.512368 -2.46917,0.210503 z"
           id="path21615"
           transform="matrix(0.26458333,0,0,0.26458333,128.76866,136.62299)" />
        <path
           style="fill:#ffffff;fill-opacity:1;stroke:none;stroke-width:0.408661;stroke-miterlimit:4;stroke-dasharray:9.80787, 0.408661;stroke-dashoffset:0;stroke-opacity:1"
           d="m -179.58447,-37.672379 c -2.30062,-0.752663 -3.48017,-3.258253 -2.51679,-5.346115 0.3956,-0.85737 1.09874,-1.585265 1.9234,-1.991141 0.86886,-0.427627 2.47356,-0.434283 3.32722,-0.0138 1.34975,0.664836 2.13116,1.875727 2.2051,3.417086 0.0399,0.831496 0.001,1.055532 -0.29622,1.718435 -0.39482,0.879772 -1.17195,1.661394 -2.02863,2.040341 -0.72332,0.319963 -1.92534,0.40052 -2.61408,0.175193 z"
           id="path21654"
           transform="matrix(0.26458333,0,0,0.26458333,128.76866,136.62299)" />
        <path
           style="fill:#ffffff;fill-opacity:1;stroke:none;stroke-width:0.408661;stroke-miterlimit:4;stroke-dasharray:9.80787, 0.408661;stroke-dashoffset:0;stroke-opacity:1"
           d="m -205.30633,-39.656249 c -0.0267,-0.08594 -0.0768,-0.823286 -0.11146,-1.638552 -0.0574,-1.351222 -0.0942,-1.532751 -0.41634,-2.052795 -0.22529,-0.363717 -0.55304,-0.67595 -0.90428,-0.861448 -0.49066,-0.259135 -0.71964,-0.290955 -2.09375,-0.290955 h -1.54283 v -0.9375 -0.9375 l 1.34375,-7e-4 c 1.58059,-8.25e-4 2.13754,-0.130765 2.70828,-0.631882 0.69186,-0.607463 0.85634,-1.112916 0.9227,-2.835469 l 0.059,-1.531949 h 0.91117 0.91118 l 0.0407,1.738854 c 0.0406,1.733248 0.042,1.740402 0.42895,2.21875 0.68023,0.840794 1.0253,0.966056 2.81488,1.021814 l 1.58586,0.04941 0.043,0.454336 c 0.0237,0.249885 0.0256,0.665274 0.004,0.923086 l -0.0388,0.46875 h -1.51549 c -1.854,0 -2.41447,0.207572 -2.98359,1.104986 -0.34895,0.550231 -0.36082,0.621203 -0.36082,2.156113 0,1.803343 0.0399,1.738901 -1.07665,1.738901 -0.43577,0 -0.69867,-0.0563 -0.72969,-0.15625 z"
           id="path21693"
           transform="matrix(0.26458333,0,0,0.26458333,128.76866,136.62299)" />
      </g>
      <path
         style="fill:#ffffff;fill-opacity:1;stroke:none;stroke-width:0.144484;stroke-miterlimit:4;stroke-dasharray:3.46761, 0.144484;stroke-dashoffset:0;stroke-opacity:1"
         d="M 74.480315,62.788871 C 72.169511,58.813384 70.126648,54.02 68.631964,49.066275 l -0.190112,-0.630072 -0.158267,-0.04183 c -0.224691,-0.05938 -1.299127,-0.168133 -2.257491,-0.228497 -0.550388,-0.03467 -3.413801,-0.05747 -8.761495,-0.06977 l -7.943902,-0.01827 V 38.49041 c 0,-8.816474 0.0058,-9.587427 0.07174,-9.587427 0.123718,0 0.969124,-0.298133 1.261662,-0.444926 1.758413,-0.882356 2.964145,-2.516492 3.286347,-4.454006 0.09263,-0.557018 0.06915,-1.694419 -0.04576,-2.21633 -0.257995,-1.171844 -0.784798,-2.134631 -1.633705,-2.985763 -0.832287,-0.83447 -1.641477,-1.293501 -2.885049,-1.636609 -0.04375,-0.01207 -0.05524,-0.990027 -0.05524,-4.701211 V 7.7781744 l 0.673961,-0.00212 c 0.370679,-0.00116 1.419738,-0.019545 2.331243,-0.040846 1.390847,-0.032502 1.790519,-0.057107 2.486052,-0.1530506 5.16528,-0.7125113 9.0226,-2.088422 10.9001,-3.8880807 0.366695,-0.351492 0.779686,-0.8820853 0.906326,-1.1644088 l 0.08405,-0.1873806 h 1.587473 1.587473 l 0.616537,0.1350435 c 3.436788,0.7527794 6.498748,2.3432574 9.15591,4.7558672 1.692282,1.5365324 3.227773,3.5893716 4.291775,5.7377886 0.405246,0.818266 0.864228,1.942574 1.091517,2.673747 0.07934,0.255221 0.36728,1.020886 0.639873,1.701475 4.514521,11.27151 7.321757,23.173972 8.083304,34.272582 0.142527,2.077179 0.162706,2.662805 0.186557,5.413786 0.0226,2.60659 0.0015,3.774496 -0.1047,5.778388 l -0.02751,0.519281 H 84.302822 74.794999 Z M 61.672968,45.473345 c 3.194566,-0.275532 5.906445,-2.405726 6.920739,-5.436272 0.631601,-1.887123 0.553969,-3.885655 -0.222203,-5.720298 -0.917864,-2.169564 -2.802547,-3.860558 -5.04986,-4.530883 -2.316052,-0.690829 -4.826646,-0.317594 -6.800631,1.01101 -3.174209,2.136423 -4.402398,6.13528 -2.977116,9.693186 1.195924,2.985361 4.068914,4.9474 7.355673,5.023379 0.133687,0.0031 0.481717,-0.01496 0.773398,-0.04012 z M 72.50786,30.446736 c 2.384718,-0.265912 4.170483,-2.259645 4.168696,-4.654177 -3.98e-4,-0.534718 -0.05284,-0.893003 -0.204543,-1.397376 -0.402087,-1.336858 -1.48667,-2.497668 -2.789635,-2.985693 -0.60389,-0.226187 -1.012038,-0.298202 -1.690071,-0.298202 -1.264602,0 -2.299186,0.406875 -3.202368,1.259408 -0.711151,0.671271 -1.148489,1.426978 -1.382021,2.38809 -0.05884,0.242176 -0.07783,0.501166 -0.07701,1.050611 9.77e-4,0.656654 0.0131,0.772604 0.121902,1.165419 0.52838,1.907708 2.068431,3.241914 4.00917,3.473298 0.426401,0.05084 0.579419,0.05064 1.045883,-0.0014 z m -6.592251,-7.484101 c 0.840956,-0.247904 1.463719,-0.618363 2.079451,-1.236992 0.594063,-0.596858 0.990035,-1.289791 1.222815,-2.139871 0.129186,-0.471772 0.139837,-1.674822 0.01938,-2.188608 -0.401282,-1.711533 -1.7078,-3.055266 -3.410031,-3.507162 -0.394354,-0.10469 -0.520461,-0.117212 -1.171145,-0.116289 -0.642418,9.1e-4 -0.780255,0.01464 -1.158144,0.115396 -1.543687,0.41157 -2.739605,1.513297 -3.272937,3.015162 -0.359763,1.01309 -0.329021,2.252232 0.08168,3.292466 0.559967,1.418293 1.845306,2.49672 3.377127,2.833481 0.577216,0.126897 1.685972,0.09332 2.231806,-0.06758 z m 14.28575,0.0841 c 2.137379,-0.405454 3.685921,-2.181147 3.798058,-4.355183 0.118342,-2.294341 -1.348317,-4.261509 -3.59665,-4.824031 -0.323264,-0.08088 -0.509037,-0.09697 -1.096324,-0.09494 -0.62029,0.0021 -0.761368,0.01686 -1.149049,0.119881 -1.676251,0.445453 -2.939467,1.712097 -3.379454,3.388626 -0.123894,0.472088 -0.167176,1.343972 -0.09218,1.856886 0.285249,1.950824 1.786736,3.51834 3.742343,3.906912 0.418377,0.08313 1.339716,0.08409 1.773254,0.0019 z m -7.0821,-7.395368 c 1.75949,-0.440509 3.101861,-1.847007 3.472093,-3.637958 0.0797,-0.385513 0.09076,-0.552989 0.07106,-1.075347 C 76.625929,9.9709045 76.411801,9.2814007 75.907818,8.5082224 75.290545,7.561242 74.317748,6.8622422 73.186051,6.5525073 72.813769,6.4506172 72.679799,6.4370503 72.014404,6.4338574 71.358511,6.4307099 71.21297,6.4435 70.868319,6.534575 c -1.732717,0.4578743 -2.9763,1.7014572 -3.434174,3.4341737 -0.08974,0.3396013 -0.104195,0.4967143 -0.103406,1.1239883 7.82e-4,0.620608 0.01632,0.787997 0.104323,1.123989 0.306046,1.168428 1.010378,2.163756 1.978089,2.795337 0.572027,0.373336 1.145082,0.589254 1.960438,0.738663 0.276553,0.05068 1.402322,-0.0134 1.74567,-0.09936 z"
         id="path21917"
         transform="matrix(0.26458333,0,0,0.26458333,68.840538,119.55744)" />
    </g>
  </g>
  <style
     type="text/css"
     id="style833">
	.st0{fill-rule:evenodd;clip-rule:evenodd;fill:#000000;}
</style>
</svg>
