<?xml version="1.0" encoding="UTF-8" standalone="no"?>
<!-- Created with Inkscape (http://www.inkscape.org/) -->

<svg
   width="210mm"
   height="297mm"
   viewBox="0 0 210 297"
   version="1.1"
   id="svg5"
   sodipodi:docname="driving.svg"
   inkscape:version="1.1.2 (b8e25be8, 2022-02-05)"
   xmlns:inkscape="http://www.inkscape.org/namespaces/inkscape"
   xmlns:sodipodi="http://sodipodi.sourceforge.net/DTD/sodipodi-0.dtd"
   xmlns="http://www.w3.org/2000/svg"
   xmlns:svg="http://www.w3.org/2000/svg">
  <sodipodi:namedview
     id="namedview7"
     pagecolor="#ffffff"
     bordercolor="#666666"
     borderopacity="1.0"
     inkscape:pageshadow="2"
     inkscape:pageopacity="0.0"
     inkscape:pagecheckerboard="0"
     inkscape:document-units="mm"
     showgrid="false"
     inkscape:zoom="1.0670983"
     inkscape:cx="395.93352"
     inkscape:cy="268.4851"
     inkscape:window-width="1920"
     inkscape:window-height="1027"
     inkscape:window-x="0"
     inkscape:window-y="25"
     inkscape:window-maximized="0"
     inkscape:current-layer="layer1" />
  <defs
     id="defs2" />
  <g
     inkscape:label="Layer 1"
     inkscape:groupmode="layer"
     id="layer1">
    <g
       id="g5704"
       transform="translate(-48.349574,24.050814)">
      <g
         id="g3651">
        <path
           d="m 79.760513,81.063553 c 0,15.07257 12.262462,27.335017 27.335017,27.335017 h 8.24299 v 2.60803 c 0,0.55791 0.45143,1.00931 1.00929,1.00931 h 7.56981 c 0.55786,0 1.00929,-0.4514 1.00929,-1.00931 v -2.60803 h 8.24299 c 15.07255,0 27.33505,-12.262447 27.33505,-27.335017 0,-15.07256 -12.2625,-27.335 -27.33505,-27.335 h -26.07437 c -15.072555,0 -27.335017,12.26244 -27.335017,27.335 z M 117.35714,109.99732 V 95.025293 h 5.55119 v 14.972027 z m 7.56977,-13.364437 v -2.61689 c 0,-0.55784 -0.45143,-1.00931 -1.00929,-1.00931 h -7.56981 c -0.55786,0 -1.00929,0.45147 -1.00929,1.00931 v 2.61689 h -8.34156 c -8.585018,0 -15.569308,-6.98431 -15.569308,-15.56933 0,-8.585 6.98429,-15.56927 15.569308,-15.56927 h 26.27151 c 8.58501,0 15.56934,6.98427 15.56934,15.56927 0,8.58502 -6.98433,15.56933 -15.56934,15.56933 z m 8.24299,-40.88573 c 13.95976,0 25.31642,11.35665 25.31642,25.3164 0,13.95977 -11.35666,25.316407 -25.31642,25.316407 h -8.24299 v -7.728457 h 8.34156 c 9.6978,0 17.58793,-7.89013 17.58793,-17.58795 0,-9.6978 -7.89013,-17.58793 -17.58793,-17.58793 h -26.27151 c -9.697804,0 -17.587933,7.89013 -17.587933,17.58793 0,9.69782 7.890129,17.58795 17.587933,17.58795 h 8.34156 v 7.728457 h -8.24299 c -13.959734,0 -25.316393,-11.356637 -25.316393,-25.316407 0,-13.95975 11.356659,-25.3164 25.316393,-25.3164 z"
           id="path2024"
           style="fill:#000000;fill-opacity:1;stroke-width:1.00931" />
      </g>
      <path
         style="fill:#ffffff;fill-opacity:1;stroke:#666666;stroke-width:0.970775"
         d="m 158.29017,83.887551 c -0.41224,2.958572 -1.26583,5.718252 -2.57276,8.317792 -3.4687,6.89938 -9.79214,11.741657 -17.55179,13.440577 -1.47801,0.3236 -2.45165,0.38369 -7.44236,0.45932 l -5.74188,0.087 v -3.77037 -3.770367 l 5.47889,-0.0796 c 5.23741,-0.0761 5.55599,-0.10004 7.22803,-0.54429 6.84336,-1.81825 12.02303,-7.48684 13.08074,-14.315438 0.32454,-2.09533 0.11552,-5.720283 -0.43759,-7.588766 -1.69798,-5.735981 -5.65229,-9.928688 -11.23644,-11.913872 -2.60722,-0.926878 -2.5204,-0.922687 -19.11039,-0.922687 h -15.42857 l -1.55273,0.395621 c -5.075121,1.293088 -9.211723,4.515157 -11.592076,9.029266 -2.950189,5.594755 -2.62899,12.500746 0.82795,17.801356 2.401628,3.68248 6.130864,6.36356 10.475946,7.53154 1.57715,0.42394 1.95649,0.45194 7.14448,0.52727 l 5.4789,0.0796 v 3.769087 3.76909 l -5.65422,-0.0864 c -4.79381,-0.0733 -5.91254,-0.14087 -7.3518,-0.44429 -5.147153,-1.08513 -9.148114,-3.24715 -12.865681,-6.952277 -4.988997,-4.9723 -7.481187,-10.90186 -7.481187,-17.799682 0,-6.908586 2.495384,-12.850133 7.475493,-17.799267 3.529867,-3.507912 7.016252,-5.498624 11.658815,-6.657134 3.10195,-0.774065 4.26441,-0.816885 20.26728,-0.746561 14.77041,0.06491 15.1126,0.07411 16.7784,0.451321 10.20788,2.311506 17.67322,9.787234 19.78014,19.80766 0.41039,1.951758 0.59256,6.143517 0.34441,7.924501 z"
         id="path2730" />
    </g>
    <path
       style="fill:#ffffff;fill-opacity:1;stroke:#000000;stroke-width:0.319725;stroke-miterlimit:4;stroke-dasharray:none;stroke-opacity:1"
       d="m 69.074126,126.52808 v -7.45129 h 2.71753 2.71753 v 7.45129 7.4513 h -2.71753 -2.71753 z"
       id="path6032" />
    <path
       style="fill:none;fill-opacity:1;stroke:#000000;stroke-width:0.869845;stroke-opacity:1"
       d="m 182.14872,42.739193 c -0.37963,2.57945 -1.16568,4.98548 -2.36921,7.2519 -3.19425,6.01526 -9.01737,10.23701 -16.16308,11.71822 -1.36106,0.28213 -2.25767,0.33452 -6.85351,0.40046 l -5.28758,0.0759 c -10.8976,0 -5.86359,-0.0776 -14.08676,-0.0776 -4.41452,-0.0639 -5.44474,-0.12282 -6.77012,-0.38736 -4.73991,-0.94608 -8.42431,-2.83104 -11.84774,-6.06137 -4.59427,-4.33512 -6.88927,-9.50483 -6.88927,-15.51873 0,-6.02327 2.29794,-11.20344 6.88402,-15.51836 3.25058,-3.05838 6.46112,-4.794 10.73636,-5.80405 2.85654,-0.67487 3.92701,-0.7122 18.66372,-0.65089 13.60177,0.0566 13.91688,0.0646 15.45088,0.39348 9.40024,2.0153 16.2749,8.53305 18.21513,17.26939 0.37792,1.70165 0.54567,5.35626 0.31716,6.90901 z"
       id="path2730-5"
       sodipodi:nodetypes="ssssccsssssscsss" />
    <path
       style="fill:none;fill-opacity:1;stroke:#000000;stroke-width:0.73653;stroke-opacity:1"
       d="m 178.71643,42.003568 c -0.33603,2.089354 -1.0318,4.038239 -2.0971,5.874039 -2.82735,4.87236 -7.9816,8.291978 -14.30653,9.491758 -1.20473,0.228525 -1.99834,0.270961 -6.06629,0.324373 l -4.68025,0.06148 c -9.64586,0 -5.19007,-0.06286 -12.4687,-0.06286 -3.90747,-0.05176 -4.81935,-0.09949 -5.9925,-0.313762 -4.19547,-0.766325 -7.45666,-2.293142 -10.48687,-4.90971 -4.06655,-3.511447 -6.09795,-7.698912 -6.09795,-12.570171 0,-4.878849 2.034,-9.074786 6.0933,-12.569872 2.87721,-2.477287 5.71899,-3.88314 9.50317,-4.70128 2.52841,-0.546645 3.47592,-0.576882 16.51993,-0.527221 12.03943,0.04585 12.31837,0.05233 13.67616,0.318719 8.3205,1.632393 14.40551,6.91177 16.12288,13.988206 0.33452,1.378336 0.483,4.33857 0.28075,5.596298 z"
       id="path2730-5-8"
       sodipodi:nodetypes="ssssccsssssscsss" />
    <path
       d="m 85.740702,30.102418 c 0,0 -2.67362,-0.44741 -2.67362,1.96479 0,2.34024 2.67362,1.96506 2.67362,1.96506 0,0 0.0839,0.45747 0.40798,0.35031 0,0 0.09,-0.0926 -0.11562,-0.47784 l 3.34486,0.0262 c 0,0 0.21723,0.11006 1.025,0.11006 2.91571,0 2.91571,-3.94705 0,-3.94705 -0.80777,0 -1.025,0.1098 -1.025,0.1098 l -3.34486,0.0262 c 0.20558,-0.38497 0.11562,-0.47784 0.11562,-0.47784 -0.32411,-0.10742 -0.40798,0.35031 -0.40798,0.35031 z m 6.06478,1.9513 c 0,0.74401 -0.78846,1.32292 -0.78846,1.32292 l -0.94298,-8e-4 c 0,0 0.96811,-0.51752 0.96811,-1.34276 0,-0.82523 -0.99536,-1.28825 -0.99536,-1.28825 l 0.97023,-0.019 c 0,0 0.78846,0.58393 0.78846,1.32794 z m -5.56657,-1.29011 c 0,0 -0.28178,0.31591 -0.28178,1.26259 0,0.94721 0.31802,1.3089 0.31802,1.3089 l -0.86333,0.36962 c 0,0 -0.65432,-0.48657 -0.65432,-1.65365 0,-1.16654 0.66781,-1.65338 0.66781,-1.65338 z"
       id="path824"
       style="fill:#ec0000;fill-opacity:1;stroke-width:0.264583" />
  </g>
  <style
     type="text/css"
     id="style833">
	.st0{fill-rule:evenodd;clip-rule:evenodd;fill:#000000;}
</style>
</svg>
