<svg xmlns="http://www.w3.org/2000/svg" data-name="Layer 1" viewBox="0 0 96 96" x="0px" y="0px"><title>Artboard 35</title><path d="M34.00072,56.48651a8.015,8.015,0,0,1-2.28406-15.69336,8.07016,8.07016,0,0,1,4.573.00146,8.01255,8.01255,0,0,1-2.28894,15.6919Zm0-14.02539A6.015,6.015,0,0,0,32.286,54.23748a6.049,6.049,0,0,0,3.42561.001,6.01246,6.01246,0,0,0-1.71085-11.77734Z"></path><path d="M60.99933,56.48651a8.01271,8.01271,0,1,1,7.99959-8.0127A8.01512,8.01512,0,0,1,60.99933,56.48651Zm0-14.02539A6.01271,6.01271,0,1,0,66.999,48.47381,6.01287,6.01287,0,0,0,60.99933,42.46112Z"></path><path d="M22.00134,38.04559a7.93338,7.93338,0,0,1-2.28895-.333l-.7109-.21435V33.47674a.4396.4396,0,0,0-.43749-.44043H14.54859l-.21385-.71094a8.05782,8.05782,0,0,1,0-4.585l.21385-.71142H18.564a.43918.43918,0,0,0,.43749-.43994V22.56854l.7109-.21485a8.06147,8.06147,0,0,1,4.57789,0l.7109.21485v4.02051a.43917.43917,0,0,0,.43747.43994h4.01543l.21385.71142a8.05759,8.05759,0,0,1,0,4.585l-.21385.71094H25.43865a.43959.43959,0,0,0-.43747.44043v4.02149l-.7109.21435A7.93336,7.93336,0,0,1,22.00134,38.04559Zm-.99995-2.082a6.13592,6.13592,0,0,0,1.9999,0V33.47674a2.44182,2.44182,0,0,1,2.43736-2.44043H27.919a6.181,6.181,0,0,0,0-2.00732H25.43865a2.44172,2.44172,0,0,1-2.43736-2.43994V24.10223a6.13537,6.13537,0,0,0-1.9999,0v2.48682A2.44173,2.44173,0,0,1,18.564,29.029H16.08367a6.18179,6.18179,0,0,0,0,2.00732H18.564a2.44183,2.44183,0,0,1,2.43739,2.44043Z"></path><path d="M48,40.049a6.009,6.009,0,1,1,5.99969-6.00879A6.01079,6.01079,0,0,1,48,40.049Zm0-10.01807a4.009,4.009,0,1,0,3.99979,4.00928A4.00865,4.00865,0,0,0,48,30.03094Z"></path><path d="M71.99877,26.7658a4.67334,4.67334,0,1,1,4.66675-4.67334A4.67559,4.67559,0,0,1,71.99877,26.7658Zm0-7.34668a2.67335,2.67335,0,1,0,2.66685,2.67334A2.673,2.673,0,0,0,71.99877,19.41912Z"></path><path d="M71.99877,41.45916a4.67334,4.67334,0,1,1,4.66675-4.67334A4.67559,4.67559,0,0,1,71.99877,41.45916Zm0-7.34668a2.67335,2.67335,0,1,0,2.66685,2.67334A2.673,2.673,0,0,0,71.99877,34.11248Z"></path><path d="M79.3314,34.11248a4.67334,4.67334,0,1,1,4.66675-4.67334A4.67475,4.67475,0,0,1,79.3314,34.11248Zm0-7.34668a2.67335,2.67335,0,1,0,2.66685,2.67334A2.67283,2.67283,0,0,0,79.3314,26.7658Z"></path><path d="M64.66614,34.11248a4.67335,4.67335,0,1,1,4.66577-4.67334A4.67559,4.67559,0,0,1,64.66614,34.11248Zm0-7.34668A2.67335,2.67335,0,1,0,67.332,29.43914,2.673,2.673,0,0,0,64.66614,26.7658Z"></path><path d="M87.11029,26.50457a21.66012,21.66012,0,0,0-20.11224-15.481v-.02338H29.002v.02338A21.643,21.643,0,0,0,8.88873,26.52508C4.99928,35.904-1.27383,54.65008.22707,75.18719l.02246.15039a13.57541,13.57541,0,0,0,11.53554,9.603,6.17309,6.17309,0,0,0,.85151.05908A6.42756,6.42756,0,0,0,17.278,82.98651c2.86313-3.00977,8.16657-9.81934,11.89489-21.89942H66.82716C70.55548,73.16717,75.85892,79.97674,78.72205,82.986a6.38663,6.38663,0,0,0,5.49581,1.9541,13.57352,13.57352,0,0,0,11.53261-9.60254l.02246-.15039C97.2709,54.68328,90.99877,35.905,87.11029,26.50457ZM64.55677,13.00018C62.93478,14.91375,56.92728,17.01092,48,17.01092s-14.93478-2.09717-16.55677-4.01074Zm29.228,61.9541a11.51962,11.51962,0,0,1-9.84715,8.00586A4.39246,4.39246,0,0,1,80.1712,81.6076c-2.79576-2.93848-8.02693-9.6792-11.64491-21.80664l-.21288-.71387H27.68659l-.21288.71387c-3.618,12.12744-8.84915,18.86816-11.64491,21.80713a4.38918,4.38918,0,0,1-3.76348,1.35254c-7.81209-1.11719-9.65477-7.25733-9.85008-8.0044C.76512,54.82733,6.94254,36.42547,10.75777,27.2409l.03711-.10644A19.632,19.632,0,0,1,29.179,13.01617C30.51726,16.91729,39.5019,19.01092,48,19.01092s17.48274-2.09363,18.82105-5.99475a19.652,19.652,0,0,1,18.385,14.10022l.03614.10352C89.05551,36.42645,95.231,54.86,93.78476,74.95428Z"></path></svg>