<svg xmlns="http://www.w3.org/2000/svg" xmlns:xlink="http://www.w3.org/1999/xlink" version="1.1" x="0px" y="0px" viewBox="0 0 650 650" style="enable-background:new 0 0 650 650;" xml:space="preserve"><style type="text/css">
	.st0{fill-rule:evenodd;clip-rule:evenodd;fill:#000000;}
</style><path class="st0" d="M378.0549,203.26746h66.57639c33.47662,0,63.78922,13.5737,85.73248,35.5172  c21.94354,21.94328,35.51721,52.25591,35.51721,85.7325c0,16.29919-3.28217,31.9433-9.23041,46.3031  c-6.19989,14.9675-15.19,28.34189-26.28845,39.4404c-0.38409,0.38409-0.78015,0.7486-1.18695,1.09439  c-10.91077,10.62601-23.86768,19.22861-38.25348,25.18591c-14.3555,5.94449-29.99368,9.22589-46.29041,9.22589H207.3687  c-33.4826,0-63.7951-13.57089-85.737-35.51279c-21.9419-21.9418-35.5127-52.25412-35.5127-85.73691  c0-16.29901,3.28159-31.93851,9.22929-46.29401c6.2002-14.9664,15.1911-28.33829,26.2896-39.4368  c0.3864-0.38629,0.7849-0.75229,1.194-1.1001c10.9295-10.6396,23.8805-19.2413,38.2337-25.18781  c14.35831-5.9482,30.0024-9.23099,46.3031-9.23099h48.71251v-21.10571H192.8454c-36.3493,0-69.4151,16.35201-93.642,41.83351  c-25.1345,26.4361-40.7273,62.57048-40.7273,100.5219c0,17.9498,3.4937,35.03931,9.8336,50.62729  c6.6116,16.25592,16.2842,30.90451,28.2912,43.2218c12.0209,12.32422,26.3792,22.34561,42.3502,29.3392  c15.02451,6.5798,31.43341,10.49609,48.62471,11.1535c0.34779-0.01819,0.69809-0.0278,1.05049-0.0278  c10.9584,0,19.8425,8.88409,19.8425,19.8425c0,2.37912,0.4328,4.5499,1.21581,6.44061  c0.82491,1.99219,2.06731,3.82449,3.62891,5.3989c1.5746,1.56241,3.4061,2.80429,5.39719,3.62891  c1.8907,0.7829,4.0623,1.21579,6.44231,1.21579v0.07739l201.69261-0.00031v-0.07739c4.6095,0,8.78119-1.86688,11.79929-4.88498  c3.01801-3.0177,4.88489-7.18982,4.88489-11.79922h0.07233c-0.00452-10.7067,8.54468-19.51199,19.30508-19.76508  c17.74289-0.47913,34.6759-4.43082,50.1409-11.20392c15.96667-6.9931,30.31989-17.01331,42.33508-29.33829  c12.01471-12.3183,21.69043-26.96552,28.3028-43.21732c6.34344-15.5903,9.83795-32.6824,9.83795-50.63361  c0-18.32507-3.60175-35.70038-10.12842-51.45587c-6.62091-15.9826-16.263-30.42142-28.21979-42.60732  c-0.34302-0.299-0.67889-0.6109-1.00574-0.9377c-13.84528-13.845-30.42816-26.90671-48.69009-35.81061  c-14.54428-7.09119-30.18509-11.54359-46.3252-11.54359H378.0549V203.26746L378.0549,203.26746z M256.08121,142.47675v-7.67709  c0-10.9584,8.88409-19.8425,19.8425-19.8425h82.2887c10.9584,0,19.8425,8.88409,19.8425,19.8425v7.6754h81.09979  c22.6221,0,44.0654,6.0069,63.68741,15.57379c22.65759,11.04721,42.80988,26.83081,59.38629,43.40701  c0.37714,0.377,0.73541,0.76559,1.0755,1.16409c15.5177,15.804,28.04913,34.5782,36.67609,55.4026  c8.5249,20.57901,13.229,43.04269,13.229,66.49258c0,23.13782-4.54077,45.2579-12.78308,65.5155  c-8.53522,20.9772-21.07312,39.9342-36.67413,55.92892c-15.55566,15.95679-34.16565,28.94177-54.89148,38.01907  c-15.21552,6.66373-31.59949,11.21143-48.77969,13.27103c-2.82449,8.0932-7.4418,15.34586-13.37729,21.2814  c-10.20129,10.2016-24.29321,16.51147-39.8577,16.51147v-0.07739L225.153,534.96545v0.07739  c-7.50481,0-14.76511-1.53638-21.479-4.31628c-6.93669-2.87262-13.1445-7.04474-18.30299-12.19354l-0.0766-0.07825  c-5.1497-5.159-9.3223-11.36774-12.19431-18.30383c-0.39459-0.953-0.76399-1.91739-1.1078-2.89169  c-17.20659-2.05508-33.61519-6.60611-48.85339-13.27939c-20.7267-9.07602-39.3412-22.0621-54.9065-38.02002  c-15.5951-15.99838-28.1305-34.9563-36.6625-55.9335c-8.2389-20.25668-12.7789-42.37448-12.7789-65.50919  c0-48.2851,19.8066-94.22481,51.7337-127.8054c31.4093-33.0358,74.5759-54.235,122.3207-54.235H256.08121L256.08121,142.47675z   M256.08121,242.95245v14.34531c0,10.9585,8.88409,19.8425,19.8425,19.8425h82.2887c10.9584,0,19.8425-8.884,19.8425-19.8425  v-14.34531h66.57639c22.5224,0,42.914,9.1304,57.67401,23.89069c14.76031,14.76001,23.89069,35.15161,23.89069,57.67401  c0,11.17499-2.17981,21.7301-6.12988,31.26639c-4.08051,9.8512-10.15741,18.81351-17.76251,26.41861  c-0.3075,0.30759-0.6012,0.62341-0.8844,0.9454c-7.36438,7.1257-16.01178,12.8656-25.53418,16.80881  c-9.53122,3.94669-20.0809,6.1254-31.25372,6.1254H207.3687c-22.52809,0-42.9203-9.12781-57.6785-23.88611  c-14.7583-14.7583-23.8862-35.15021-23.8862-57.6785c0-11.17331,2.1793-21.72479,6.1288-31.25742  c4.0799-9.84808,10.15739-18.80869,17.7636-26.41489c0.31491-0.31491,0.61571-0.6387,0.90511-0.9689  c7.325-7.10669,15.9619-12.8409,25.5007-16.793c9.53549-3.95039,20.0912-6.13049,31.26649-6.13049H256.08121L256.08121,242.95245z   M295.7662,237.45525v-14.34529v-60.79071v-7.67709h42.60361v7.6754v60.7924v14.34529H295.7662z"></path></svg>