<svg xmlns="http://www.w3.org/2000/svg" xmlns:xlink="http://www.w3.org/1999/xlink" version="1.1" x="0px" y="0px" viewBox="0 0 100 100" enable-background="new 0 0 100 100" xml:space="preserve"><g><g><path d="M73.254,23.253H54.143l0,0h-2.639v2.64h2.639v2.639h-2.639v2.64h2.639v2.646h19.111c8.922,0,16.182,7.26,16.182,16.184    c0,8.923-7.26,16.182-16.182,16.182H26.747c-8.922,0-16.182-7.259-16.182-16.182c0-8.924,7.26-16.184,16.182-16.184h16.837V33.81    h2.642v-2.638h-2.642v-2.64h2.642v-2.639h-2.642v-1.411h-1.183v-0.479h1.183v-0.75H26.747C11.997,23.253,0,35.251,0,50.001    C0,64.75,11.997,76.746,26.747,76.746h46.507C88.004,76.746,100,64.75,100,50.001C100,35.251,88.004,23.253,73.254,23.253z     M99.238,49.246l-0.48,0.014c-0.021-0.784-0.081-1.58-0.176-2.362l0.479-0.058C99.156,47.637,99.218,48.447,99.238,49.246z     M98.884,45.645l-0.471,0.081c-0.136-0.783-0.306-1.562-0.506-2.314l0.465-0.124C98.577,44.055,98.749,44.848,98.884,45.645z     M97.193,39.866c0.316,0.752,0.599,1.515,0.84,2.263l-0.46,0.147c-0.235-0.738-0.511-1.484-0.82-2.224L97.193,39.866z     M88.204,28.743c0.647,0.458,1.289,0.955,1.903,1.481l-0.311,0.364c-0.605-0.515-1.234-1.003-1.87-1.452L88.204,28.743z     M85.113,26.868c0.722,0.372,1.422,0.777,2.092,1.203l-0.26,0.406c-0.654-0.42-1.348-0.817-2.051-1.181L85.113,26.868z     M81.788,25.441c0.767,0.268,1.521,0.571,2.237,0.899l-0.2,0.438c-0.704-0.323-1.443-0.621-2.197-0.883L81.788,25.441z     M78.299,24.493c0.795,0.158,1.583,0.354,2.344,0.578l-0.138,0.459c-0.747-0.221-1.519-0.411-2.298-0.567L78.299,24.493z     M74.709,24.042c0.795,0.045,1.605,0.127,2.398,0.246l-0.068,0.474c-0.781-0.115-1.574-0.195-2.357-0.239L74.709,24.042z     M71.107,24.003h2.146c0.086-0.002,0.176,0,0.249,0l-0.005,0.479c-0.081,0-0.154,0-0.241,0h-2.147v-0.479H71.107z M67.52,24.003    h2.394v0.479H67.52V24.003z M63.93,24.003h2.394v0.479H63.93V24.003z M60.342,24.003h2.393v0.479h-2.393V24.003z M56.752,24.003    h2.393v0.479h-2.393V24.003z M54.143,24.003h1.416v0.479h-1.416V24.003z M57.712,33.067h-2.389v-0.481h2.389V33.067z     M61.297,33.067h-2.391v-0.481h2.391V33.067z M64.879,33.067H62.49v-0.481h2.389V33.067z M68.467,33.067h-2.393v-0.481h2.393    V33.067z M72.051,33.067H69.66v-0.481h2.391V33.067z M75.598,33.227c-0.779-0.105-1.568-0.16-2.344-0.16l-0.009-0.481h0.009    c0.799,0,1.607,0.056,2.406,0.165L75.598,33.227z M79.018,34.076c-0.732-0.266-1.496-0.484-2.264-0.646l0.1-0.47    c0.789,0.167,1.573,0.391,2.33,0.666L79.018,34.076z M82.193,35.621c-0.674-0.418-1.369-0.79-2.082-1.104l0.195-0.439    c0.732,0.325,1.45,0.705,2.139,1.136L82.193,35.621z M84.977,37.791c-0.563-0.544-1.172-1.052-1.807-1.513l0.282-0.388    c0.653,0.472,1.276,0.996,1.856,1.553L84.977,37.791z M87.25,40.483c-0.438-0.645-0.927-1.266-1.456-1.851l0.356-0.321    c0.543,0.6,1.049,1.238,1.496,1.901L87.25,40.483z M87.882,41.476l0.414-0.24c0.402,0.686,0.763,1.416,1.073,2.166l-0.441,0.183    C88.623,42.854,88.271,42.145,87.882,41.476z M89.332,44.687l0.454-0.149c0.256,0.767,0.454,1.556,0.598,2.344l-0.471,0.086    C89.771,46.202,89.576,45.433,89.332,44.687z M89.396,55.115l0.459,0.144c-0.248,0.769-0.549,1.525-0.899,2.255l-0.431-0.212    C88.865,56.598,89.157,55.861,89.396,55.115z M87.98,58.346l0.422,0.237c-0.398,0.7-0.853,1.379-1.342,2.019l-0.379-0.295    C87.158,59.686,87.594,59.027,87.98,58.346z M14.953,62.141c0.565,0.549,1.168,1.06,1.8,1.521l-0.287,0.388    c-0.646-0.478-1.267-1.001-1.847-1.563L14.953,62.141z M12.068,58.436l-0.413,0.241c-0.402-0.692-0.758-1.426-1.063-2.172    l0.442-0.185C11.334,57.05,11.681,57.761,12.068,58.436z M10.64,55.216l-0.459,0.151c-0.244-0.758-0.443-1.549-0.583-2.348    l0.47-0.088C10.209,53.716,10.397,54.482,10.64,55.216z M9.827,49.418c-0.009,0.194-0.013,0.388-0.013,0.583    c0,0.585,0.029,1.181,0.09,1.769l-0.478,0.049c-0.063-0.604-0.093-1.215-0.093-1.816c0-0.201,0.002-0.404,0.011-0.603    L9.827,49.418z M9.426,48.192c0.084-0.813,0.225-1.615,0.42-2.385l0.465,0.119c-0.187,0.747-0.325,1.527-0.407,2.315L9.426,48.192    z M10.636,44.791l-0.459-0.149c0.25-0.766,0.555-1.523,0.908-2.243l0.431,0.21C11.173,43.31,10.876,44.044,10.636,44.791z     M19.792,34.56l-0.196-0.436c0.732-0.332,1.497-0.614,2.272-0.842l0.131,0.463C21.25,33.964,20.506,34.239,19.792,34.56z     M23.143,33.451l-0.104-0.469c0.79-0.172,1.598-0.289,2.398-0.348l0.036,0.479C24.693,33.171,23.909,33.284,23.143,33.451z     M29.035,33.067h-2.389v-0.481h2.389V33.067z M32.619,33.067H30.23v-0.481h2.389V33.067z M36.205,33.067h-2.391v-0.481h2.391    V33.067z M39.789,33.067H37.4v-0.481h2.389V33.067z M43.374,32.586v0.481h-2.389v-0.481H43.374z M38.813,24.003h2.393v0.479    h-2.393V24.003z M35.223,24.003h2.393v0.479h-2.393V24.003z M31.637,24.003h2.393v0.479h-2.393V24.003z M28.047,24.003h2.393    v0.479h-2.393V24.003z M26.747,24.003h0.105v0.479h-0.105c-0.786,0-1.583,0.038-2.364,0.111l-0.045-0.479    C25.133,24.041,25.946,24.003,26.747,24.003z M23.137,24.251l0.068,0.478c-0.777,0.107-1.562,0.255-2.328,0.436l-0.11-0.469    C21.548,24.511,22.347,24.362,23.137,24.251z M19.6,25.001l0.131,0.463c-0.756,0.215-1.509,0.47-2.246,0.757l-0.172-0.449    C18.06,25.482,18.83,25.222,19.6,25.001z M18.508,34.661l0.229,0.422c-0.693,0.375-1.362,0.797-1.99,1.258l-0.282-0.388    C17.108,35.479,17.797,35.045,18.508,34.661z M16.198,26.24l0.196,0.439c-0.714,0.319-1.427,0.679-2.114,1.064l-0.235-0.42    C14.746,26.931,15.47,26.566,16.198,26.24z M15.513,36.703l0.311,0.365c-0.598,0.509-1.167,1.063-1.688,1.642l-0.355-0.321    C14.312,37.794,14.895,37.226,15.513,36.703z M12.066,41.567l-0.415-0.241c0.402-0.7,0.856-1.375,1.35-2.008l0.381,0.296    C12.901,40.23,12.459,40.887,12.066,41.567z M13.001,27.941l0.253,0.408c-0.666,0.418-1.321,0.87-1.944,1.348l-0.292-0.382    C11.652,28.83,12.321,28.366,13.001,27.941z M5.232,35.422l0.396,0.269c-0.443,0.65-0.859,1.327-1.238,2.019l-0.42-0.233    C4.356,36.773,4.781,36.083,5.232,35.422z M3.414,38.545l0.431,0.211C3.5,39.458,3.18,40.189,2.897,40.928l-0.449-0.172    C2.735,40.004,3.06,39.259,3.414,38.545z M2.046,41.894L2.5,42.043c-0.239,0.734-0.454,1.502-0.633,2.285l-0.469-0.109    C1.585,43.423,1.8,42.641,2.046,41.894z M1.156,45.401l0.472,0.086c-0.138,0.766-0.242,1.556-0.307,2.348l-0.477-0.04    C0.91,46.988,1.012,46.184,1.156,45.401z M0.749,50.001c0.003-0.335,0.009-0.669,0.02-1.003l0.483,0.018    c-0.011,0.327-0.016,0.657-0.02,0.987c0,0.461,0.011,0.922,0.038,1.382L0.786,51.41C0.761,50.943,0.749,50.473,0.749,50.001z     M0.881,52.613l0.476-0.047c0.079,0.769,0.194,1.555,0.345,2.341l-0.47,0.094C1.077,54.2,0.958,53.396,0.881,52.613z     M1.493,56.178l0.465-0.113c0.183,0.754,0.408,1.518,0.669,2.271l-0.454,0.158C1.91,57.725,1.68,56.945,1.493,56.178z     M3.597,61.824c-0.366-0.719-0.704-1.457-0.998-2.196l0.447-0.18c0.291,0.729,0.617,1.454,0.976,2.157L3.597,61.824z     M5.471,64.922c-0.459-0.648-0.897-1.335-1.299-2.038l0.42-0.237c0.393,0.689,0.822,1.36,1.269,1.996L5.471,64.922z M7.466,32.579    L7.822,32.9c-0.535,0.592-1.043,1.208-1.504,1.829l-0.386-0.287C6.404,33.808,6.921,33.182,7.466,32.579z M7.753,67.729    c-0.545-0.582-1.075-1.198-1.565-1.838L6.567,65.6c0.482,0.621,1,1.231,1.536,1.803L7.753,67.729z M10.072,30.068l0.311,0.368    c-0.612,0.513-1.201,1.052-1.746,1.604L8.3,31.701C8.852,31.139,9.45,30.59,10.072,30.068z M10.396,70.199    c-0.61-0.495-1.215-1.034-1.802-1.604l0.333-0.345c0.578,0.563,1.174,1.091,1.771,1.576L10.396,70.199z M13.355,72.277    c-0.689-0.416-1.364-0.865-2.007-1.34l0.287-0.388c0.628,0.464,1.292,0.908,1.967,1.317L13.355,72.277z M13.784,61.611    c-0.54-0.603-1.043-1.24-1.488-1.908l0.396-0.266c0.436,0.646,0.921,1.271,1.447,1.853L13.784,61.611z M16.572,73.925    c-0.734-0.312-1.465-0.667-2.17-1.048l0.23-0.424c0.691,0.377,1.409,0.722,2.13,1.029L16.572,73.925z M17.729,64.326    c0.661,0.417,1.355,0.794,2.071,1.113l-0.195,0.44c-0.738-0.334-1.454-0.718-2.134-1.147L17.729,64.326z M19.993,75.109    c-0.767-0.209-1.54-0.455-2.297-0.739l0.167-0.448c0.747,0.276,1.504,0.521,2.256,0.721L19.993,75.109z M20.888,65.893    c0.729,0.27,1.49,0.49,2.263,0.659l-0.104,0.468c-0.792-0.172-1.574-0.398-2.326-0.68L20.888,65.893z M23.541,75.799    c-0.797-0.097-1.6-0.236-2.376-0.404l0.102-0.472c0.765,0.169,1.549,0.302,2.332,0.402L23.541,75.799z M24.309,66.76    c0.771,0.111,1.562,0.17,2.346,0.174v0.479c-0.808-0.003-1.621-0.063-2.416-0.179L24.309,66.76z M27.152,75.996h-0.405    c-0.666,0-1.341-0.023-2.005-0.075l0.034-0.481c0.653,0.052,1.315,0.08,1.971,0.08h0.405V75.996z M27.848,66.934h2.391v0.479    h-2.391V66.934z M30.738,75.996h-2.392v-0.479h2.392V75.996z M31.436,66.934h2.389v0.479h-2.389V66.934z M34.328,75.996h-2.393    v-0.479h2.393V75.996z M35.021,66.934h2.389v0.479h-2.389V66.934z M37.914,75.996h-2.391v-0.479h2.391V75.996z M38.603,66.934    h2.391v0.479h-2.391V66.934z M41.503,75.996h-2.391v-0.479h2.391V75.996z M42.187,66.934h2.389v0.479h-2.389V66.934z     M45.091,75.996h-2.393v-0.479h2.393V75.996z M45.771,66.934h2.393v0.479h-2.393V66.934z M48.681,75.996h-2.393v-0.479h2.393    V75.996z M49.357,66.934h2.391v0.479h-2.391V66.934z M52.268,75.996h-2.393v-0.479h2.393V75.996z M52.941,66.934h2.39v0.479h-2.39    V66.934z M55.855,75.996h-2.393v-0.479h2.393V75.996z M56.525,66.934h2.39v0.479h-2.39V66.934z M59.443,75.996h-2.393v-0.479    h2.393V75.996z M60.109,66.934h2.39v0.479h-2.39V66.934z M63.034,75.996h-2.394v-0.479h2.394V75.996z M63.693,66.934h2.392v0.479    h-2.392V66.934z M66.624,75.996H64.23v-0.479h2.394V75.996z M67.279,66.934h2.39v0.479h-2.39V66.934z M70.21,75.996h-2.394v-0.479    h2.394V75.996z M70.865,66.934h2.584l0.011,0.479h-0.206h-2.389V66.934z M73.254,75.996h-1.847v-0.479h1.847    c0.178,0,0.357-0.002,0.54-0.007l0.011,0.481C73.618,75.996,73.438,75.996,73.254,75.996z M74.629,66.879    c0.782-0.063,1.563-0.184,2.329-0.352l0.104,0.466c-0.789,0.176-1.592,0.298-2.394,0.362L74.629,66.879z M75.009,75.938    l-0.036-0.479c0.789-0.051,1.58-0.14,2.355-0.267l0.074,0.475C76.617,75.792,75.811,75.885,75.009,75.938z M78.096,66.229    c0.754-0.226,1.495-0.506,2.202-0.832l0.201,0.438c-0.728,0.334-1.491,0.621-2.267,0.854L78.096,66.229z M78.592,75.447    l-0.098-0.471c0.771-0.162,1.54-0.362,2.289-0.597l0.144,0.46C80.164,75.077,79.376,75.282,78.592,75.447z M81.352,64.872    c0.687-0.377,1.354-0.804,1.979-1.271l0.287,0.388c-0.646,0.478-1.328,0.919-2.035,1.303L81.352,64.872z M82.075,74.456    l-0.167-0.452c0.744-0.27,1.479-0.574,2.188-0.908l0.205,0.436C83.577,73.871,82.827,74.184,82.075,74.456z M84.252,62.865    c0.594-0.506,1.154-1.063,1.678-1.651l0.361,0.32c-0.536,0.606-1.12,1.177-1.729,1.696L84.252,62.865z M85.383,72.992    l-0.223-0.428c0.691-0.366,1.379-0.771,2.039-1.207l0.264,0.402C86.788,72.202,86.09,72.615,85.383,72.992z M88.456,71.075    l-0.28-0.388c0.629-0.457,1.251-0.951,1.854-1.477l0.316,0.362C89.73,70.105,89.098,70.611,88.456,71.075z M90.177,54.096    l-0.465-0.113c0.187-0.766,0.317-1.549,0.394-2.32l0.477,0.045C90.504,52.502,90.369,53.307,90.177,54.096z M90.661,50.497    l-0.481-0.009c0.004-0.161,0.006-0.325,0.006-0.486c-0.002-0.637-0.037-1.267-0.104-1.868l0.479-0.052    c0.067,0.618,0.104,1.264,0.106,1.919C90.667,50.166,90.665,50.332,90.661,50.497z M91.01,31.028    c0.592,0.556,1.157,1.138,1.682,1.728l-0.359,0.318c-0.516-0.58-1.068-1.15-1.648-1.696L91.01,31.028z M91.236,68.756    l-0.332-0.345c0.562-0.538,1.109-1.116,1.629-1.72l0.363,0.315C92.368,67.618,91.809,68.207,91.236,68.756z M93.475,33.677    c0.508,0.63,0.99,1.285,1.428,1.944l-0.4,0.268c-0.432-0.648-0.9-1.292-1.4-1.91L93.475,33.677z M93.666,66.082l-0.379-0.298    c0.494-0.625,0.959-1.274,1.379-1.925l0.4,0.259C94.639,64.782,94.169,65.441,93.666,66.082z M95.553,36.642    c0.411,0.689,0.795,1.402,1.143,2.124l-0.43,0.21c-0.344-0.709-0.722-1.411-1.125-2.085L95.553,36.642z M95.705,63.092    l-0.415-0.244c0.396-0.675,0.765-1.379,1.101-2.097l0.438,0.205C96.484,61.686,96.107,62.406,95.705,63.092z M97.311,59.854    l-0.441-0.183c0.302-0.739,0.57-1.489,0.795-2.229l0.46,0.141C97.893,58.335,97.62,59.1,97.311,59.854z M98.447,56.419    L97.982,56.3c0.193-0.765,0.352-1.543,0.474-2.317l0.476,0.074C98.809,54.848,98.645,55.641,98.447,56.419z M98.616,52.809    c0.086-0.795,0.138-1.591,0.147-2.364l0.481,0.005c-0.013,0.79-0.063,1.6-0.152,2.411L98.616,52.809z"></path><rect x="46.226" y="23.253" width="2.637" height="2.64"></rect><rect x="48.862" y="25.893" width="2.642" height="2.639"></rect><rect x="46.226" y="28.532" width="2.637" height="2.64"></rect><rect x="48.862" y="31.172" width="2.642" height="2.638"></rect></g></g></svg>