<svg xmlns="http://www.w3.org/2000/svg" xmlns:xlink="http://www.w3.org/1999/xlink" version="1.1" x="0px" y="0px" viewBox="0 0 100 100" style="enable-background:new 0 0 100 100;" xml:space="preserve"><path d="M50,10c-14.9335938,0-27.0830078,12.1494141-27.0830078,27.0830078V45.25h-2.5839844c-0.5527344,0-1,0.4472656-1,1v7.5  c0,0.5527344,0.4472656,1,1,1h2.5839844v8.1669922C22.9169922,77.8505859,35.0664062,90,50,90  s27.0830078-12.1494141,27.0830078-27.0830078V37.0830078C77.0830078,22.1494141,64.9335938,10,50,10z M21.3330078,47.25h14.8339844  v5.5H21.3330078V47.25z M34.5742188,54.75h2.5927734c0.5527344,0,1-0.4472656,1-1v-7.5c0-0.5527344-0.4472656-1-1-1h-2.5927734  v-8.2646484c0-8.5058594,6.9199219-15.4257812,15.4257812-15.4257812s15.4257812,6.9199219,15.4257812,15.4257812v26.0292969  c0,8.5058594-6.9199219,15.4257812-15.4257812,15.4257812s-15.4257812-6.9199219-15.4257812-15.4257812V54.75z   M75.0830078,62.9169922C75.0830078,76.7480469,63.8310547,88,50,88S24.9169922,76.7480469,24.9169922,62.9169922V54.75h7.6572266  v8.2646484c0,9.6083984,7.8173828,17.4257812,17.4257812,17.4257812s17.4257812-7.8173828,17.4257812-17.4257812V36.9853516  c0-9.6083984-7.8173828-17.4257812-17.4257812-17.4257812s-17.4257812,7.8173828-17.4257812,17.4257812V45.25h-7.6572266v-8.1669922  C24.9169922,23.2519531,36.1689453,12,50,12s25.0830078,11.2519531,25.0830078,25.0830078V62.9169922z"></path></svg>