<svg xmlns="http://www.w3.org/2000/svg" xmlns:xlink="http://www.w3.org/1999/xlink" version="1.1" x="0px" y="0px" viewBox="0 0 48.031 48" enable-background="new 0 0 48.031 48" xml:space="preserve"><path d="M31.417,16.105c0,0,1.691-10.105-7.426-10.105c-8.845,0-7.427,10.105-7.427,10.105s-1.729,0.317-1.324,1.542  c0,0,0.35,0.34,1.806-0.437l-0.099,12.642c0,0-0.416,0.821-0.416,3.874c0,11.02,14.918,11.02,14.918,0  c0-3.053-0.415-3.874-0.415-3.874l-0.099-12.642c1.455,0.777,1.806,0.437,1.806,0.437C33.147,16.422,31.417,16.105,31.417,16.105z   M24.042,39.027c-2.812,0-5-2.98-5-2.98l0.003-3.564c0,0,1.956,3.659,5.075,3.659s4.869-3.762,4.869-3.762l0.072,3.667  C29.061,36.047,26.854,39.027,24.042,39.027z M28.918,17.988c0,0-1.194-1.065-4.772-1.065c-3.58,0-4.947,1.202-4.947,1.202  l-1.397-3.263c0,0,1.839-2.473,6.25-2.473c4.409,0,6.249,2.524,6.249,2.524L28.918,17.988z"></path></svg>